<svg width="198" height="58" viewBox="0 0 198 58" fill="none" xmlns="http://www.w3.org/2000/svg">
<g clip-path="url(#clip0_7_5)">
<mask id="path-1-outside-1_7_5" maskUnits="userSpaceOnUse" x="-1" y="-1" width="200" height="60" fill="black">
<rect fill="white" x="-1" y="-1" width="200" height="60"/>
<path d="M0 14.4833C0 11.9773 1.58468 9.4344 4.75405 6.85468C7.92342 4.27496 11.4797 2.9851 15.423 2.9851C18.3344 2.9851 20.7115 3.82535 22.5541 5.50586C24.3968 7.17899 25.3181 9.10272 25.3181 11.2771C25.3181 13.4514 24.3231 15.4046 22.333 17.1367C25.3918 17.9843 27.7246 19.4953 29.3314 21.6696C30.9308 23.844 31.7305 26.2026 31.7305 28.7454C31.7305 32.1728 30.3854 35.2021 27.6951 37.8334C25.0048 40.4721 21.5591 41.7914 17.3578 41.7914H5.97021C5.38056 41.7914 4.85724 41.5961 4.40026 41.2055C3.93591 40.8222 3.70374 40.3173 3.70374 39.6908C3.70374 39.0643 3.93591 38.5557 4.40026 38.1651C4.85724 37.7818 5.38056 37.5902 5.97021 37.5902H7.02052C7.02052 37.1848 7.10528 35.4343 7.2748 32.3386C7.43696 29.2429 7.51804 26.1915 7.51804 23.1843C7.51804 20.1845 7.48118 17.6895 7.40748 15.6994C7.33377 13.7094 7.25269 12.0952 7.16425 10.8569C7.06843 9.62603 7.02052 8.80789 7.02052 8.40251C5.03045 10.0978 4.03542 12.1247 4.03542 14.4833C4.03542 15.1098 3.85115 15.6147 3.48262 15.9979C3.11409 16.3886 2.61657 16.5839 1.99007 16.5839C0.663354 16.5839 0 15.8837 0 14.4833ZM12.3274 37.8113C14.7597 38.0693 16.9782 38.1983 18.983 38.1983C20.9952 38.1983 22.8231 37.4501 24.4668 35.9539C26.1031 34.465 26.9212 32.3091 26.9212 29.4862C26.9212 26.6706 26.0552 24.4889 24.3231 22.9411C22.591 21.3932 20.483 20.6193 17.9991 20.6193C15.5078 20.6193 13.4514 21.1168 11.8298 22.1119C11.8298 24.3599 11.9036 27.1865 12.051 30.5918C12.1984 34.0044 12.2905 36.4109 12.3274 37.8113ZM12.051 6.74412C12.2352 7.18636 12.3274 7.56226 12.3274 7.87183C12.3274 8.18876 12.2537 9.48968 12.1062 11.7746C11.9588 14.0595 11.8667 16.6576 11.8298 19.569C13.9673 17.6895 16.6023 16.7497 19.7348 16.7497C20.8404 15.8284 21.3932 14.4538 21.3932 12.6259C21.3932 10.8053 20.682 9.36069 19.2594 8.29195C17.8443 7.22321 15.8468 6.68884 13.2671 6.68884C13.1197 6.68884 12.9096 6.69621 12.6369 6.71095C12.3568 6.73306 12.1615 6.74412 12.051 6.74412ZM57.0486 34.4392L56.9381 42.1784C56.9381 45.79 55.3534 49.2468 52.184 52.5489C49.0146 55.8435 45.4768 57.4909 41.5703 57.4909C39.6171 57.4909 37.9219 56.9381 36.4846 55.8325C35.0473 54.7269 34.3287 53.5291 34.3287 52.2393C34.3287 51.5759 34.5572 50.9863 35.0142 50.4703C35.4785 49.9544 36.0313 49.6964 36.6725 49.6964C37.3212 49.6964 37.9108 49.8807 38.4415 50.2492C38.9795 50.6178 39.4771 51.0231 39.934 51.4654C40.3984 51.9076 41.0986 52.313 42.0347 52.6815C42.9781 53.0501 44.0395 53.2343 45.2188 53.2343C47.5405 53.2343 49.5306 52.3793 51.189 50.6693C52.8474 48.952 53.6766 46.914 53.6766 44.5554C53.6766 41.3123 53.6581 39.009 53.6213 37.6455C51.926 40.4094 49.807 41.7914 47.2641 41.7914C45.1635 41.7914 43.494 41.0359 42.2558 39.525C41.0249 38.014 40.1699 36.1713 39.6908 33.997L37.5902 24.4889C37.3691 23.4202 36.8789 22.4693 36.1197 21.6365C35.3679 20.811 34.992 19.9744 34.992 19.1268C34.992 18.2791 35.2869 17.5863 35.8765 17.0483C36.4662 16.5176 37.1111 16.2522 37.8113 16.2522C38.5115 16.2522 39.0827 16.3812 39.525 16.6392C39.9672 16.8972 40.3357 17.2841 40.6306 17.8001C41.0359 18.574 41.3492 19.5137 41.5703 20.6193L44.0026 32.1728C44.408 33.9786 44.9497 35.3532 45.6278 36.2966C46.3133 37.2327 47.3747 37.7007 48.812 37.7007C50.2492 37.7007 51.399 37.1553 52.2614 36.0645C53.1311 34.981 53.566 33.6285 53.566 32.0069L53.1791 19.569C53.1791 18.574 53.426 17.7706 53.9198 17.1588C54.421 16.5544 55.0217 16.2522 55.7219 16.2522C56.4221 16.2522 56.9933 16.536 57.4356 17.1035C57.8778 17.6784 58.0989 18.4524 58.0989 19.4253C58.0989 20.4056 57.9884 21.7802 57.7673 23.5491C57.2882 27.3819 57.0486 31.0119 57.0486 34.4392ZM76.2307 20.3429C76.0464 20.3429 73.7431 20.1955 69.3207 19.9007C69.3207 20.3798 69.247 22.204 69.0996 25.3734C68.9522 28.5427 68.8785 30.8903 68.8785 32.416C68.8785 33.9491 69.2175 35.2205 69.8956 36.2303C70.5811 37.2474 70.9238 38.1614 70.9238 38.9722C70.9238 39.7829 70.6474 40.4537 70.0946 40.9844C69.5418 41.5224 68.9153 41.7914 68.2151 41.7914C66.3725 41.7914 65.4511 40.3357 65.4511 37.4243L65.23 26.2026C65.23 23.9177 65.1747 21.8723 65.0642 20.0665H63.7375C63.2215 20.0665 62.7977 19.9081 62.466 19.5911C62.1344 19.2815 61.9685 18.8504 61.9685 18.2976C61.9685 17.7448 62.1344 17.3099 62.466 16.993C62.7977 16.6834 63.2215 16.5286 63.7375 16.5286H64.8983C64.8246 14.6123 64.7878 13.1455 64.7878 12.1284C64.7878 11.1186 65.0347 10.3078 65.5285 9.69605C66.0297 9.09166 66.6304 8.78947 67.3307 8.78947C68.0309 8.78947 68.6021 9.07324 69.0443 9.64077C69.4866 10.2157 69.7077 11.1481 69.7077 12.4379C69.7077 13.7278 69.6524 15.1466 69.5418 16.6945L76.2307 16.2522C77.6679 16.2522 78.3866 16.934 78.3866 18.2976C78.3866 19.6611 77.6679 20.3429 76.2307 20.3429ZM89.8737 30.4591L83.2954 29.9063C82.6689 29.9063 82.1714 29.9616 81.8029 30.0721C82.024 32.1728 82.9195 33.9233 84.4895 35.3237C86.052 36.7241 87.902 37.4243 90.0395 37.4243C92.1033 37.4243 93.9644 36.6689 95.6228 35.1579C96.2124 34.6419 96.6547 34.384 96.9495 34.384C97.2443 34.384 97.5023 34.4945 97.7234 34.7156C97.9445 34.9368 98.0551 35.1763 98.0551 35.4343C98.0551 36.503 97.0158 37.8297 94.9373 39.4144C92.8514 40.9991 90.4928 41.7914 87.8615 41.7914C85.2228 41.7914 82.9379 40.7227 81.0068 38.5852C79.0684 36.4477 78.0991 33.7943 78.0991 30.6249C78.0991 26.5711 79.6285 23.1622 82.6873 20.3982C85.7461 17.6342 89.1182 16.2522 92.8035 16.2522C94.3514 16.2522 95.6154 16.5176 96.5957 17.0483C97.5686 17.5863 98.0551 18.2681 98.0551 19.0936C98.0551 19.9265 97.8082 20.6009 97.3143 21.1168C96.8131 21.6328 96.323 21.8908 95.8439 21.8908C95.3648 21.8908 94.5467 21.6696 93.3895 21.2274C92.2249 20.7852 91.1083 20.564 90.0395 20.564C88.0495 20.564 86.3284 21.1611 84.8764 22.3551C83.417 23.5565 82.4478 25.0417 81.9687 26.8106L89.5973 26.3684C91.2925 26.3684 92.1402 27.0318 92.1402 28.3585C92.1402 29.7589 91.3847 30.4591 89.8737 30.4591ZM98.7737 14.4833C98.7737 11.9773 100.358 9.4344 103.528 6.85468C106.697 4.27496 110.253 2.9851 114.197 2.9851C117.108 2.9851 119.485 3.82535 121.328 5.50586C123.17 7.17899 124.092 9.10272 124.092 11.2771C124.092 13.4514 123.097 15.4046 121.107 17.1367C124.166 17.9843 126.498 19.4953 128.105 21.6696C129.705 23.844 130.504 26.2026 130.504 28.7454C130.504 32.1728 129.159 35.2021 126.469 37.8334C123.779 40.4721 120.333 41.7914 116.132 41.7914H104.744C104.154 41.7914 103.631 41.5961 103.174 41.2055C102.71 40.8222 102.477 40.3173 102.477 39.6908C102.477 39.0643 102.71 38.5557 103.174 38.1651C103.631 37.7818 104.154 37.5902 104.744 37.5902H105.794C105.794 37.1848 105.879 35.4343 106.049 32.3386C106.211 29.2429 106.292 26.1915 106.292 23.1843C106.292 20.1845 106.255 17.6895 106.181 15.6994C106.107 13.7094 106.026 12.0952 105.938 10.8569C105.842 9.62603 105.794 8.80789 105.794 8.40251C103.804 10.0978 102.809 12.1247 102.809 14.4833C102.809 15.1098 102.625 15.6147 102.256 15.9979C101.888 16.3886 101.39 16.5839 100.764 16.5839C99.4371 16.5839 98.7737 15.8837 98.7737 14.4833ZM111.101 37.8113C113.533 38.0693 115.756 38.1983 117.768 38.1983C119.773 38.1983 121.597 37.4501 123.241 35.9539C124.877 34.465 125.695 32.3091 125.695 29.4862C125.695 26.6706 124.829 24.4889 123.097 22.9411C121.365 21.3932 119.257 20.6193 116.773 20.6193C114.282 20.6193 112.225 21.1168 110.604 22.1119C110.604 24.3599 110.677 27.1865 110.825 30.5918C110.972 34.0044 111.064 36.4109 111.101 37.8113ZM110.825 6.74412C111.009 7.18636 111.101 7.56226 111.101 7.87183C111.101 8.18876 111.027 9.48968 110.88 11.7746C110.733 14.0595 110.64 16.6576 110.604 19.569C112.741 17.6895 115.376 16.7497 118.509 16.7497C119.614 15.8284 120.167 14.4538 120.167 12.6259C120.167 10.8053 119.459 9.36069 118.044 8.29195C116.622 7.22321 114.621 6.68884 112.041 6.68884C111.893 6.68884 111.683 6.69621 111.411 6.71095C111.131 6.73306 110.935 6.74412 110.825 6.74412ZM136.198 37.4243C136.198 23.0885 136.106 14.5201 135.922 11.7193C135.59 6.63356 135.424 3.66688 135.424 2.81926C135.424 1.97164 135.671 1.28986 136.165 0.773916C136.666 0.257973 137.267 0 137.967 0C138.667 0 139.238 0.257973 139.681 0.773916C140.123 1.28986 140.344 1.93479 140.344 2.7087C140.344 5.03045 140.252 8.18139 140.068 12.1615C139.699 21.5222 139.515 28.4875 139.515 33.0572C139.515 34.1628 139.872 35.2205 140.587 36.2303C141.31 37.2474 141.671 38.1614 141.671 38.9722C141.671 39.7829 141.394 40.4537 140.842 40.9844C140.289 41.5224 139.662 41.7914 138.962 41.7914C137.119 41.7914 136.198 40.3357 136.198 37.4243ZM151.92 23.0516C150.283 24.6732 149.465 26.6632 149.465 29.0218C149.465 31.3804 150.283 33.3779 151.92 35.0141C153.563 36.6578 155.553 37.4796 157.89 37.4796C160.234 37.4796 162.198 36.6578 163.783 35.0141C165.367 33.3779 166.16 31.3804 166.16 29.0218C166.16 26.6632 165.367 24.6732 163.783 23.0516C162.198 21.4301 160.234 20.6193 157.89 20.6193C155.553 20.6193 153.563 21.4301 151.92 23.0516ZM154.109 41.7914C151.75 41.7914 149.778 40.8701 148.194 39.0275C146.609 37.1848 145.817 34.8741 145.817 32.0954C145.817 29.3093 146.683 26.6153 148.415 24.0135C150.147 21.419 152.174 19.4769 154.496 18.187C156.817 16.8972 159.158 16.2522 161.516 16.2522C163.875 16.2522 165.846 17.1736 167.431 19.0162C169.016 20.8589 169.808 23.1696 169.808 25.9483C169.808 28.7344 168.942 31.4247 167.21 34.0191C165.478 36.6209 163.451 38.5668 161.129 39.8566C158.807 41.1465 156.467 41.7914 154.109 41.7914ZM184.667 20.6193C182.309 20.6193 180.311 21.4301 178.675 23.0516C177.031 24.6732 176.21 26.6632 176.21 29.0218C176.21 31.3804 177.031 33.3779 178.675 35.0141C180.311 36.6578 182.272 37.4796 184.557 37.4796C186.842 37.4796 188.751 36.7499 190.284 35.2905C191.809 33.8385 192.664 32.0254 192.849 29.851C192.812 28.7823 192.793 27.5661 192.793 26.2026C192.793 24.839 193.044 23.8513 193.545 23.2396C194.039 22.6352 194.636 22.333 195.336 22.333C196.036 22.333 196.608 22.6168 197.05 23.1843C197.492 23.7592 197.713 24.452 197.713 25.2628C197.713 26.0736 197.688 26.8733 197.636 27.662C197.577 28.458 197.492 29.4825 197.382 30.7355C197.013 34.8262 196.829 38.6589 196.829 42.2337C196.829 45.8084 195.244 49.2468 192.075 52.5489C188.905 55.8435 185.368 57.4909 181.461 57.4909C179.508 57.4909 177.813 56.9381 176.375 55.8325C174.938 54.7269 174.219 53.5291 174.219 52.2393C174.219 51.5759 174.452 50.9863 174.916 50.4703C175.373 49.9544 175.926 49.6964 176.574 49.6964C177.216 49.6964 177.805 49.8807 178.343 50.2492C178.874 50.6178 179.371 51.0231 179.836 51.4654C180.293 51.9076 180.993 52.313 181.936 52.6815C182.873 53.0501 183.93 53.2343 185.11 53.2343C187.431 53.2343 189.366 52.3793 190.914 50.6693C192.462 48.952 193.236 46.914 193.236 44.5554C193.236 44.2606 193.18 41.1834 193.07 35.3237C191.485 37.3138 189.598 38.8874 187.409 40.0446C185.213 41.2092 183.138 41.7914 181.185 41.7914C178.605 41.7914 176.523 40.8701 174.938 39.0275C173.353 37.1848 172.561 34.8741 172.561 32.0954C172.561 29.3093 173.427 26.6153 175.159 24.0135C176.891 21.419 178.918 19.4769 181.24 18.187C183.562 16.8972 185.644 16.2522 187.487 16.2522C189.329 16.2522 190.63 16.536 191.389 17.1035C192.141 17.6784 192.517 18.3602 192.517 19.1489C192.517 19.9449 192.27 20.6009 191.776 21.1168C191.275 21.6328 190.796 21.8908 190.339 21.8908C189.875 21.8908 189.064 21.677 187.907 21.2495C186.742 20.8294 185.662 20.6193 184.667 20.6193Z"/>
</mask>
<path d="M0 14.4833C0 11.9773 1.58468 9.4344 4.75405 6.85468C7.92342 4.27496 11.4797 2.9851 15.423 2.9851C18.3344 2.9851 20.7115 3.82535 22.5541 5.50586C24.3968 7.17899 25.3181 9.10272 25.3181 11.2771C25.3181 13.4514 24.3231 15.4046 22.333 17.1367C25.3918 17.9843 27.7246 19.4953 29.3314 21.6696C30.9308 23.844 31.7305 26.2026 31.7305 28.7454C31.7305 32.1728 30.3854 35.2021 27.6951 37.8334C25.0048 40.4721 21.5591 41.7914 17.3578 41.7914H5.97021C5.38056 41.7914 4.85724 41.5961 4.40026 41.2055C3.93591 40.8222 3.70374 40.3173 3.70374 39.6908C3.70374 39.0643 3.93591 38.5557 4.40026 38.1651C4.85724 37.7818 5.38056 37.5902 5.97021 37.5902H7.02052C7.02052 37.1848 7.10528 35.4343 7.2748 32.3386C7.43696 29.2429 7.51804 26.1915 7.51804 23.1843C7.51804 20.1845 7.48118 17.6895 7.40748 15.6994C7.33377 13.7094 7.25269 12.0952 7.16425 10.8569C7.06843 9.62603 7.02052 8.80789 7.02052 8.40251C5.03045 10.0978 4.03542 12.1247 4.03542 14.4833C4.03542 15.1098 3.85115 15.6147 3.48262 15.9979C3.11409 16.3886 2.61657 16.5839 1.99007 16.5839C0.663354 16.5839 0 15.8837 0 14.4833ZM12.3274 37.8113C14.7597 38.0693 16.9782 38.1983 18.983 38.1983C20.9952 38.1983 22.8231 37.4501 24.4668 35.9539C26.1031 34.465 26.9212 32.3091 26.9212 29.4862C26.9212 26.6706 26.0552 24.4889 24.3231 22.9411C22.591 21.3932 20.483 20.6193 17.9991 20.6193C15.5078 20.6193 13.4514 21.1168 11.8298 22.1119C11.8298 24.3599 11.9036 27.1865 12.051 30.5918C12.1984 34.0044 12.2905 36.4109 12.3274 37.8113ZM12.051 6.74412C12.2352 7.18636 12.3274 7.56226 12.3274 7.87183C12.3274 8.18876 12.2537 9.48968 12.1062 11.7746C11.9588 14.0595 11.8667 16.6576 11.8298 19.569C13.9673 17.6895 16.6023 16.7497 19.7348 16.7497C20.8404 15.8284 21.3932 14.4538 21.3932 12.6259C21.3932 10.8053 20.682 9.36069 19.2594 8.29195C17.8443 7.22321 15.8468 6.68884 13.2671 6.68884C13.1197 6.68884 12.9096 6.69621 12.6369 6.71095C12.3568 6.73306 12.1615 6.74412 12.051 6.74412ZM57.0486 34.4392L56.9381 42.1784C56.9381 45.79 55.3534 49.2468 52.184 52.5489C49.0146 55.8435 45.4768 57.4909 41.5703 57.4909C39.6171 57.4909 37.9219 56.9381 36.4846 55.8325C35.0473 54.7269 34.3287 53.5291 34.3287 52.2393C34.3287 51.5759 34.5572 50.9863 35.0142 50.4703C35.4785 49.9544 36.0313 49.6964 36.6725 49.6964C37.3212 49.6964 37.9108 49.8807 38.4415 50.2492C38.9795 50.6178 39.4771 51.0231 39.934 51.4654C40.3984 51.9076 41.0986 52.313 42.0347 52.6815C42.9781 53.0501 44.0395 53.2343 45.2188 53.2343C47.5405 53.2343 49.5306 52.3793 51.189 50.6693C52.8474 48.952 53.6766 46.914 53.6766 44.5554C53.6766 41.3123 53.6581 39.009 53.6213 37.6455C51.926 40.4094 49.807 41.7914 47.2641 41.7914C45.1635 41.7914 43.494 41.0359 42.2558 39.525C41.0249 38.014 40.1699 36.1713 39.6908 33.997L37.5902 24.4889C37.3691 23.4202 36.8789 22.4693 36.1197 21.6365C35.3679 20.811 34.992 19.9744 34.992 19.1268C34.992 18.2791 35.2869 17.5863 35.8765 17.0483C36.4662 16.5176 37.1111 16.2522 37.8113 16.2522C38.5115 16.2522 39.0827 16.3812 39.525 16.6392C39.9672 16.8972 40.3357 17.2841 40.6306 17.8001C41.0359 18.574 41.3492 19.5137 41.5703 20.6193L44.0026 32.1728C44.408 33.9786 44.9497 35.3532 45.6278 36.2966C46.3133 37.2327 47.3747 37.7007 48.812 37.7007C50.2492 37.7007 51.399 37.1553 52.2614 36.0645C53.1311 34.981 53.566 33.6285 53.566 32.0069L53.1791 19.569C53.1791 18.574 53.426 17.7706 53.9198 17.1588C54.421 16.5544 55.0217 16.2522 55.7219 16.2522C56.4221 16.2522 56.9933 16.536 57.4356 17.1035C57.8778 17.6784 58.0989 18.4524 58.0989 19.4253C58.0989 20.4056 57.9884 21.7802 57.7673 23.5491C57.2882 27.3819 57.0486 31.0119 57.0486 34.4392ZM76.2307 20.3429C76.0464 20.3429 73.7431 20.1955 69.3207 19.9007C69.3207 20.3798 69.247 22.204 69.0996 25.3734C68.9522 28.5427 68.8785 30.8903 68.8785 32.416C68.8785 33.9491 69.2175 35.2205 69.8956 36.2303C70.5811 37.2474 70.9238 38.1614 70.9238 38.9722C70.9238 39.7829 70.6474 40.4537 70.0946 40.9844C69.5418 41.5224 68.9153 41.7914 68.2151 41.7914C66.3725 41.7914 65.4511 40.3357 65.4511 37.4243L65.23 26.2026C65.23 23.9177 65.1747 21.8723 65.0642 20.0665H63.7375C63.2215 20.0665 62.7977 19.9081 62.466 19.5911C62.1344 19.2815 61.9685 18.8504 61.9685 18.2976C61.9685 17.7448 62.1344 17.3099 62.466 16.993C62.7977 16.6834 63.2215 16.5286 63.7375 16.5286H64.8983C64.8246 14.6123 64.7878 13.1455 64.7878 12.1284C64.7878 11.1186 65.0347 10.3078 65.5285 9.69605C66.0297 9.09166 66.6304 8.78947 67.3307 8.78947C68.0309 8.78947 68.6021 9.07324 69.0443 9.64077C69.4866 10.2157 69.7077 11.1481 69.7077 12.4379C69.7077 13.7278 69.6524 15.1466 69.5418 16.6945L76.2307 16.2522C77.6679 16.2522 78.3866 16.934 78.3866 18.2976C78.3866 19.6611 77.6679 20.3429 76.2307 20.3429ZM89.8737 30.4591L83.2954 29.9063C82.6689 29.9063 82.1714 29.9616 81.8029 30.0721C82.024 32.1728 82.9195 33.9233 84.4895 35.3237C86.052 36.7241 87.902 37.4243 90.0395 37.4243C92.1033 37.4243 93.9644 36.6689 95.6228 35.1579C96.2124 34.6419 96.6547 34.384 96.9495 34.384C97.2443 34.384 97.5023 34.4945 97.7234 34.7156C97.9445 34.9368 98.0551 35.1763 98.0551 35.4343C98.0551 36.503 97.0158 37.8297 94.9373 39.4144C92.8514 40.9991 90.4928 41.7914 87.8615 41.7914C85.2228 41.7914 82.9379 40.7227 81.0068 38.5852C79.0684 36.4477 78.0991 33.7943 78.0991 30.6249C78.0991 26.5711 79.6285 23.1622 82.6873 20.3982C85.7461 17.6342 89.1182 16.2522 92.8035 16.2522C94.3514 16.2522 95.6154 16.5176 96.5957 17.0483C97.5686 17.5863 98.0551 18.2681 98.0551 19.0936C98.0551 19.9265 97.8082 20.6009 97.3143 21.1168C96.8131 21.6328 96.323 21.8908 95.8439 21.8908C95.3648 21.8908 94.5467 21.6696 93.3895 21.2274C92.2249 20.7852 91.1083 20.564 90.0395 20.564C88.0495 20.564 86.3284 21.1611 84.8764 22.3551C83.417 23.5565 82.4478 25.0417 81.9687 26.8106L89.5973 26.3684C91.2925 26.3684 92.1402 27.0318 92.1402 28.3585C92.1402 29.7589 91.3847 30.4591 89.8737 30.4591ZM98.7737 14.4833C98.7737 11.9773 100.358 9.4344 103.528 6.85468C106.697 4.27496 110.253 2.9851 114.197 2.9851C117.108 2.9851 119.485 3.82535 121.328 5.50586C123.17 7.17899 124.092 9.10272 124.092 11.2771C124.092 13.4514 123.097 15.4046 121.107 17.1367C124.166 17.9843 126.498 19.4953 128.105 21.6696C129.705 23.844 130.504 26.2026 130.504 28.7454C130.504 32.1728 129.159 35.2021 126.469 37.8334C123.779 40.4721 120.333 41.7914 116.132 41.7914H104.744C104.154 41.7914 103.631 41.5961 103.174 41.2055C102.71 40.8222 102.477 40.3173 102.477 39.6908C102.477 39.0643 102.71 38.5557 103.174 38.1651C103.631 37.7818 104.154 37.5902 104.744 37.5902H105.794C105.794 37.1848 105.879 35.4343 106.049 32.3386C106.211 29.2429 106.292 26.1915 106.292 23.1843C106.292 20.1845 106.255 17.6895 106.181 15.6994C106.107 13.7094 106.026 12.0952 105.938 10.8569C105.842 9.62603 105.794 8.80789 105.794 8.40251C103.804 10.0978 102.809 12.1247 102.809 14.4833C102.809 15.1098 102.625 15.6147 102.256 15.9979C101.888 16.3886 101.39 16.5839 100.764 16.5839C99.4371 16.5839 98.7737 15.8837 98.7737 14.4833ZM111.101 37.8113C113.533 38.0693 115.756 38.1983 117.768 38.1983C119.773 38.1983 121.597 37.4501 123.241 35.9539C124.877 34.465 125.695 32.3091 125.695 29.4862C125.695 26.6706 124.829 24.4889 123.097 22.9411C121.365 21.3932 119.257 20.6193 116.773 20.6193C114.282 20.6193 112.225 21.1168 110.604 22.1119C110.604 24.3599 110.677 27.1865 110.825 30.5918C110.972 34.0044 111.064 36.4109 111.101 37.8113ZM110.825 6.74412C111.009 7.18636 111.101 7.56226 111.101 7.87183C111.101 8.18876 111.027 9.48968 110.88 11.7746C110.733 14.0595 110.64 16.6576 110.604 19.569C112.741 17.6895 115.376 16.7497 118.509 16.7497C119.614 15.8284 120.167 14.4538 120.167 12.6259C120.167 10.8053 119.459 9.36069 118.044 8.29195C116.622 7.22321 114.621 6.68884 112.041 6.68884C111.893 6.68884 111.683 6.69621 111.411 6.71095C111.131 6.73306 110.935 6.74412 110.825 6.74412ZM136.198 37.4243C136.198 23.0885 136.106 14.5201 135.922 11.7193C135.59 6.63356 135.424 3.66688 135.424 2.81926C135.424 1.97164 135.671 1.28986 136.165 0.773916C136.666 0.257973 137.267 0 137.967 0C138.667 0 139.238 0.257973 139.681 0.773916C140.123 1.28986 140.344 1.93479 140.344 2.7087C140.344 5.03045 140.252 8.18139 140.068 12.1615C139.699 21.5222 139.515 28.4875 139.515 33.0572C139.515 34.1628 139.872 35.2205 140.587 36.2303C141.31 37.2474 141.671 38.1614 141.671 38.9722C141.671 39.7829 141.394 40.4537 140.842 40.9844C140.289 41.5224 139.662 41.7914 138.962 41.7914C137.119 41.7914 136.198 40.3357 136.198 37.4243ZM151.92 23.0516C150.283 24.6732 149.465 26.6632 149.465 29.0218C149.465 31.3804 150.283 33.3779 151.92 35.0141C153.563 36.6578 155.553 37.4796 157.89 37.4796C160.234 37.4796 162.198 36.6578 163.783 35.0141C165.367 33.3779 166.16 31.3804 166.16 29.0218C166.16 26.6632 165.367 24.6732 163.783 23.0516C162.198 21.4301 160.234 20.6193 157.89 20.6193C155.553 20.6193 153.563 21.4301 151.92 23.0516ZM154.109 41.7914C151.75 41.7914 149.778 40.8701 148.194 39.0275C146.609 37.1848 145.817 34.8741 145.817 32.0954C145.817 29.3093 146.683 26.6153 148.415 24.0135C150.147 21.419 152.174 19.4769 154.496 18.187C156.817 16.8972 159.158 16.2522 161.516 16.2522C163.875 16.2522 165.846 17.1736 167.431 19.0162C169.016 20.8589 169.808 23.1696 169.808 25.9483C169.808 28.7344 168.942 31.4247 167.21 34.0191C165.478 36.6209 163.451 38.5668 161.129 39.8566C158.807 41.1465 156.467 41.7914 154.109 41.7914ZM184.667 20.6193C182.309 20.6193 180.311 21.4301 178.675 23.0516C177.031 24.6732 176.21 26.6632 176.21 29.0218C176.21 31.3804 177.031 33.3779 178.675 35.0141C180.311 36.6578 182.272 37.4796 184.557 37.4796C186.842 37.4796 188.751 36.7499 190.284 35.2905C191.809 33.8385 192.664 32.0254 192.849 29.851C192.812 28.7823 192.793 27.5661 192.793 26.2026C192.793 24.839 193.044 23.8513 193.545 23.2396C194.039 22.6352 194.636 22.333 195.336 22.333C196.036 22.333 196.608 22.6168 197.05 23.1843C197.492 23.7592 197.713 24.452 197.713 25.2628C197.713 26.0736 197.688 26.8733 197.636 27.662C197.577 28.458 197.492 29.4825 197.382 30.7355C197.013 34.8262 196.829 38.6589 196.829 42.2337C196.829 45.8084 195.244 49.2468 192.075 52.5489C188.905 55.8435 185.368 57.4909 181.461 57.4909C179.508 57.4909 177.813 56.9381 176.375 55.8325C174.938 54.7269 174.219 53.5291 174.219 52.2393C174.219 51.5759 174.452 50.9863 174.916 50.4703C175.373 49.9544 175.926 49.6964 176.574 49.6964C177.216 49.6964 177.805 49.8807 178.343 50.2492C178.874 50.6178 179.371 51.0231 179.836 51.4654C180.293 51.9076 180.993 52.313 181.936 52.6815C182.873 53.0501 183.93 53.2343 185.11 53.2343C187.431 53.2343 189.366 52.3793 190.914 50.6693C192.462 48.952 193.236 46.914 193.236 44.5554C193.236 44.2606 193.18 41.1834 193.07 35.3237C191.485 37.3138 189.598 38.8874 187.409 40.0446C185.213 41.2092 183.138 41.7914 181.185 41.7914C178.605 41.7914 176.523 40.8701 174.938 39.0275C173.353 37.1848 172.561 34.8741 172.561 32.0954C172.561 29.3093 173.427 26.6153 175.159 24.0135C176.891 21.419 178.918 19.4769 181.24 18.187C183.562 16.8972 185.644 16.2522 187.487 16.2522C189.329 16.2522 190.63 16.536 191.389 17.1035C192.141 17.6784 192.517 18.3602 192.517 19.1489C192.517 19.9449 192.27 20.6009 191.776 21.1168C191.275 21.6328 190.796 21.8908 190.339 21.8908C189.875 21.8908 189.064 21.677 187.907 21.2495C186.742 20.8294 185.662 20.6193 184.667 20.6193Z" fill="#183B56"/>
<path d="M0 14.4833C0 11.9773 1.58468 9.4344 4.75405 6.85468C7.92342 4.27496 11.4797 2.9851 15.423 2.9851C18.3344 2.9851 20.7115 3.82535 22.5541 5.50586C24.3968 7.17899 25.3181 9.10272 25.3181 11.2771C25.3181 13.4514 24.3231 15.4046 22.333 17.1367C25.3918 17.9843 27.7246 19.4953 29.3314 21.6696C30.9308 23.844 31.7305 26.2026 31.7305 28.7454C31.7305 32.1728 30.3854 35.2021 27.6951 37.8334C25.0048 40.4721 21.5591 41.7914 17.3578 41.7914H5.97021C5.38056 41.7914 4.85724 41.5961 4.40026 41.2055C3.93591 40.8222 3.70374 40.3173 3.70374 39.6908C3.70374 39.0643 3.93591 38.5557 4.40026 38.1651C4.85724 37.7818 5.38056 37.5902 5.97021 37.5902H7.02052C7.02052 37.1848 7.10528 35.4343 7.2748 32.3386C7.43696 29.2429 7.51804 26.1915 7.51804 23.1843C7.51804 20.1845 7.48118 17.6895 7.40748 15.6994C7.33377 13.7094 7.25269 12.0952 7.16425 10.8569C7.06843 9.62603 7.02052 8.80789 7.02052 8.40251C5.03045 10.0978 4.03542 12.1247 4.03542 14.4833C4.03542 15.1098 3.85115 15.6147 3.48262 15.9979C3.11409 16.3886 2.61657 16.5839 1.99007 16.5839C0.663354 16.5839 0 15.8837 0 14.4833ZM12.3274 37.8113C14.7597 38.0693 16.9782 38.1983 18.983 38.1983C20.9952 38.1983 22.8231 37.4501 24.4668 35.9539C26.1031 34.465 26.9212 32.3091 26.9212 29.4862C26.9212 26.6706 26.0552 24.4889 24.3231 22.9411C22.591 21.3932 20.483 20.6193 17.9991 20.6193C15.5078 20.6193 13.4514 21.1168 11.8298 22.1119C11.8298 24.3599 11.9036 27.1865 12.051 30.5918C12.1984 34.0044 12.2905 36.4109 12.3274 37.8113ZM12.051 6.74412C12.2352 7.18636 12.3274 7.56226 12.3274 7.87183C12.3274 8.18876 12.2537 9.48968 12.1062 11.7746C11.9588 14.0595 11.8667 16.6576 11.8298 19.569C13.9673 17.6895 16.6023 16.7497 19.7348 16.7497C20.8404 15.8284 21.3932 14.4538 21.3932 12.6259C21.3932 10.8053 20.682 9.36069 19.2594 8.29195C17.8443 7.22321 15.8468 6.68884 13.2671 6.68884C13.1197 6.68884 12.9096 6.69621 12.6369 6.71095C12.3568 6.73306 12.1615 6.74412 12.051 6.74412ZM57.0486 34.4392L56.9381 42.1784C56.9381 45.79 55.3534 49.2468 52.184 52.5489C49.0146 55.8435 45.4768 57.4909 41.5703 57.4909C39.6171 57.4909 37.9219 56.9381 36.4846 55.8325C35.0473 54.7269 34.3287 53.5291 34.3287 52.2393C34.3287 51.5759 34.5572 50.9863 35.0142 50.4703C35.4785 49.9544 36.0313 49.6964 36.6725 49.6964C37.3212 49.6964 37.9108 49.8807 38.4415 50.2492C38.9795 50.6178 39.4771 51.0231 39.934 51.4654C40.3984 51.9076 41.0986 52.313 42.0347 52.6815C42.9781 53.0501 44.0395 53.2343 45.2188 53.2343C47.5405 53.2343 49.5306 52.3793 51.189 50.6693C52.8474 48.952 53.6766 46.914 53.6766 44.5554C53.6766 41.3123 53.6581 39.009 53.6213 37.6455C51.926 40.4094 49.807 41.7914 47.2641 41.7914C45.1635 41.7914 43.494 41.0359 42.2558 39.525C41.0249 38.014 40.1699 36.1713 39.6908 33.997L37.5902 24.4889C37.3691 23.4202 36.8789 22.4693 36.1197 21.6365C35.3679 20.811 34.992 19.9744 34.992 19.1268C34.992 18.2791 35.2869 17.5863 35.8765 17.0483C36.4662 16.5176 37.1111 16.2522 37.8113 16.2522C38.5115 16.2522 39.0827 16.3812 39.525 16.6392C39.9672 16.8972 40.3357 17.2841 40.6306 17.8001C41.0359 18.574 41.3492 19.5137 41.5703 20.6193L44.0026 32.1728C44.408 33.9786 44.9497 35.3532 45.6278 36.2966C46.3133 37.2327 47.3747 37.7007 48.812 37.7007C50.2492 37.7007 51.399 37.1553 52.2614 36.0645C53.1311 34.981 53.566 33.6285 53.566 32.0069L53.1791 19.569C53.1791 18.574 53.426 17.7706 53.9198 17.1588C54.421 16.5544 55.0217 16.2522 55.7219 16.2522C56.4221 16.2522 56.9933 16.536 57.4356 17.1035C57.8778 17.6784 58.0989 18.4524 58.0989 19.4253C58.0989 20.4056 57.9884 21.7802 57.7673 23.5491C57.2882 27.3819 57.0486 31.0119 57.0486 34.4392ZM76.2307 20.3429C76.0464 20.3429 73.7431 20.1955 69.3207 19.9007C69.3207 20.3798 69.247 22.204 69.0996 25.3734C68.9522 28.5427 68.8785 30.8903 68.8785 32.416C68.8785 33.9491 69.2175 35.2205 69.8956 36.2303C70.5811 37.2474 70.9238 38.1614 70.9238 38.9722C70.9238 39.7829 70.6474 40.4537 70.0946 40.9844C69.5418 41.5224 68.9153 41.7914 68.2151 41.7914C66.3725 41.7914 65.4511 40.3357 65.4511 37.4243L65.23 26.2026C65.23 23.9177 65.1747 21.8723 65.0642 20.0665H63.7375C63.2215 20.0665 62.7977 19.9081 62.466 19.5911C62.1344 19.2815 61.9685 18.8504 61.9685 18.2976C61.9685 17.7448 62.1344 17.3099 62.466 16.993C62.7977 16.6834 63.2215 16.5286 63.7375 16.5286H64.8983C64.8246 14.6123 64.7878 13.1455 64.7878 12.1284C64.7878 11.1186 65.0347 10.3078 65.5285 9.69605C66.0297 9.09166 66.6304 8.78947 67.3307 8.78947C68.0309 8.78947 68.6021 9.07324 69.0443 9.64077C69.4866 10.2157 69.7077 11.1481 69.7077 12.4379C69.7077 13.7278 69.6524 15.1466 69.5418 16.6945L76.2307 16.2522C77.6679 16.2522 78.3866 16.934 78.3866 18.2976C78.3866 19.6611 77.6679 20.3429 76.2307 20.3429ZM89.8737 30.4591L83.2954 29.9063C82.6689 29.9063 82.1714 29.9616 81.8029 30.0721C82.024 32.1728 82.9195 33.9233 84.4895 35.3237C86.052 36.7241 87.902 37.4243 90.0395 37.4243C92.1033 37.4243 93.9644 36.6689 95.6228 35.1579C96.2124 34.6419 96.6547 34.384 96.9495 34.384C97.2443 34.384 97.5023 34.4945 97.7234 34.7156C97.9445 34.9368 98.0551 35.1763 98.0551 35.4343C98.0551 36.503 97.0158 37.8297 94.9373 39.4144C92.8514 40.9991 90.4928 41.7914 87.8615 41.7914C85.2228 41.7914 82.9379 40.7227 81.0068 38.5852C79.0684 36.4477 78.0991 33.7943 78.0991 30.6249C78.0991 26.5711 79.6285 23.1622 82.6873 20.3982C85.7461 17.6342 89.1182 16.2522 92.8035 16.2522C94.3514 16.2522 95.6154 16.5176 96.5957 17.0483C97.5686 17.5863 98.0551 18.2681 98.0551 19.0936C98.0551 19.9265 97.8082 20.6009 97.3143 21.1168C96.8131 21.6328 96.323 21.8908 95.8439 21.8908C95.3648 21.8908 94.5467 21.6696 93.3895 21.2274C92.2249 20.7852 91.1083 20.564 90.0395 20.564C88.0495 20.564 86.3284 21.1611 84.8764 22.3551C83.417 23.5565 82.4478 25.0417 81.9687 26.8106L89.5973 26.3684C91.2925 26.3684 92.1402 27.0318 92.1402 28.3585C92.1402 29.7589 91.3847 30.4591 89.8737 30.4591ZM98.7737 14.4833C98.7737 11.9773 100.358 9.4344 103.528 6.85468C106.697 4.27496 110.253 2.9851 114.197 2.9851C117.108 2.9851 119.485 3.82535 121.328 5.50586C123.17 7.17899 124.092 9.10272 124.092 11.2771C124.092 13.4514 123.097 15.4046 121.107 17.1367C124.166 17.9843 126.498 19.4953 128.105 21.6696C129.705 23.844 130.504 26.2026 130.504 28.7454C130.504 32.1728 129.159 35.2021 126.469 37.8334C123.779 40.4721 120.333 41.7914 116.132 41.7914H104.744C104.154 41.7914 103.631 41.5961 103.174 41.2055C102.71 40.8222 102.477 40.3173 102.477 39.6908C102.477 39.0643 102.71 38.5557 103.174 38.1651C103.631 37.7818 104.154 37.5902 104.744 37.5902H105.794C105.794 37.1848 105.879 35.4343 106.049 32.3386C106.211 29.2429 106.292 26.1915 106.292 23.1843C106.292 20.1845 106.255 17.6895 106.181 15.6994C106.107 13.7094 106.026 12.0952 105.938 10.8569C105.842 9.62603 105.794 8.80789 105.794 8.40251C103.804 10.0978 102.809 12.1247 102.809 14.4833C102.809 15.1098 102.625 15.6147 102.256 15.9979C101.888 16.3886 101.39 16.5839 100.764 16.5839C99.4371 16.5839 98.7737 15.8837 98.7737 14.4833ZM111.101 37.8113C113.533 38.0693 115.756 38.1983 117.768 38.1983C119.773 38.1983 121.597 37.4501 123.241 35.9539C124.877 34.465 125.695 32.3091 125.695 29.4862C125.695 26.6706 124.829 24.4889 123.097 22.9411C121.365 21.3932 119.257 20.6193 116.773 20.6193C114.282 20.6193 112.225 21.1168 110.604 22.1119C110.604 24.3599 110.677 27.1865 110.825 30.5918C110.972 34.0044 111.064 36.4109 111.101 37.8113ZM110.825 6.74412C111.009 7.18636 111.101 7.56226 111.101 7.87183C111.101 8.18876 111.027 9.48968 110.88 11.7746C110.733 14.0595 110.64 16.6576 110.604 19.569C112.741 17.6895 115.376 16.7497 118.509 16.7497C119.614 15.8284 120.167 14.4538 120.167 12.6259C120.167 10.8053 119.459 9.36069 118.044 8.29195C116.622 7.22321 114.621 6.68884 112.041 6.68884C111.893 6.68884 111.683 6.69621 111.411 6.71095C111.131 6.73306 110.935 6.74412 110.825 6.74412ZM136.198 37.4243C136.198 23.0885 136.106 14.5201 135.922 11.7193C135.59 6.63356 135.424 3.66688 135.424 2.81926C135.424 1.97164 135.671 1.28986 136.165 0.773916C136.666 0.257973 137.267 0 137.967 0C138.667 0 139.238 0.257973 139.681 0.773916C140.123 1.28986 140.344 1.93479 140.344 2.7087C140.344 5.03045 140.252 8.18139 140.068 12.1615C139.699 21.5222 139.515 28.4875 139.515 33.0572C139.515 34.1628 139.872 35.2205 140.587 36.2303C141.31 37.2474 141.671 38.1614 141.671 38.9722C141.671 39.7829 141.394 40.4537 140.842 40.9844C140.289 41.5224 139.662 41.7914 138.962 41.7914C137.119 41.7914 136.198 40.3357 136.198 37.4243ZM151.92 23.0516C150.283 24.6732 149.465 26.6632 149.465 29.0218C149.465 31.3804 150.283 33.3779 151.92 35.0141C153.563 36.6578 155.553 37.4796 157.89 37.4796C160.234 37.4796 162.198 36.6578 163.783 35.0141C165.367 33.3779 166.16 31.3804 166.16 29.0218C166.16 26.6632 165.367 24.6732 163.783 23.0516C162.198 21.4301 160.234 20.6193 157.89 20.6193C155.553 20.6193 153.563 21.4301 151.92 23.0516ZM154.109 41.7914C151.75 41.7914 149.778 40.8701 148.194 39.0275C146.609 37.1848 145.817 34.8741 145.817 32.0954C145.817 29.3093 146.683 26.6153 148.415 24.0135C150.147 21.419 152.174 19.4769 154.496 18.187C156.817 16.8972 159.158 16.2522 161.516 16.2522C163.875 16.2522 165.846 17.1736 167.431 19.0162C169.016 20.8589 169.808 23.1696 169.808 25.9483C169.808 28.7344 168.942 31.4247 167.21 34.0191C165.478 36.6209 163.451 38.5668 161.129 39.8566C158.807 41.1465 156.467 41.7914 154.109 41.7914ZM184.667 20.6193C182.309 20.6193 180.311 21.4301 178.675 23.0516C177.031 24.6732 176.21 26.6632 176.21 29.0218C176.21 31.3804 177.031 33.3779 178.675 35.0141C180.311 36.6578 182.272 37.4796 184.557 37.4796C186.842 37.4796 188.751 36.7499 190.284 35.2905C191.809 33.8385 192.664 32.0254 192.849 29.851C192.812 28.7823 192.793 27.5661 192.793 26.2026C192.793 24.839 193.044 23.8513 193.545 23.2396C194.039 22.6352 194.636 22.333 195.336 22.333C196.036 22.333 196.608 22.6168 197.05 23.1843C197.492 23.7592 197.713 24.452 197.713 25.2628C197.713 26.0736 197.688 26.8733 197.636 27.662C197.577 28.458 197.492 29.4825 197.382 30.7355C197.013 34.8262 196.829 38.6589 196.829 42.2337C196.829 45.8084 195.244 49.2468 192.075 52.5489C188.905 55.8435 185.368 57.4909 181.461 57.4909C179.508 57.4909 177.813 56.9381 176.375 55.8325C174.938 54.7269 174.219 53.5291 174.219 52.2393C174.219 51.5759 174.452 50.9863 174.916 50.4703C175.373 49.9544 175.926 49.6964 176.574 49.6964C177.216 49.6964 177.805 49.8807 178.343 50.2492C178.874 50.6178 179.371 51.0231 179.836 51.4654C180.293 51.9076 180.993 52.313 181.936 52.6815C182.873 53.0501 183.93 53.2343 185.11 53.2343C187.431 53.2343 189.366 52.3793 190.914 50.6693C192.462 48.952 193.236 46.914 193.236 44.5554C193.236 44.2606 193.18 41.1834 193.07 35.3237C191.485 37.3138 189.598 38.8874 187.409 40.0446C185.213 41.2092 183.138 41.7914 181.185 41.7914C178.605 41.7914 176.523 40.8701 174.938 39.0275C173.353 37.1848 172.561 34.8741 172.561 32.0954C172.561 29.3093 173.427 26.6153 175.159 24.0135C176.891 21.419 178.918 19.4769 181.24 18.187C183.562 16.8972 185.644 16.2522 187.487 16.2522C189.329 16.2522 190.63 16.536 191.389 17.1035C192.141 17.6784 192.517 18.3602 192.517 19.1489C192.517 19.9449 192.27 20.6009 191.776 21.1168C191.275 21.6328 190.796 21.8908 190.339 21.8908C189.875 21.8908 189.064 21.677 187.907 21.2495C186.742 20.8294 185.662 20.6193 184.667 20.6193Z" stroke="#183B56" stroke-width="1.4" mask="url(#path-1-outside-1_7_5)"/>
</g>
<defs>
<clipPath id="clip0_7_5">
<rect width="197.713" height="57.4909" fill="white"/>
</clipPath>
</defs>
</svg>
