<svg width="84" height="69" viewBox="0 0 84 69" fill="none" xmlns="http://www.w3.org/2000/svg">
<rect width="83.7305" height="68.8212" rx="20" fill="#D9D9D9"/>
<path d="M10 26.4982C10 23.9922 11.5847 21.4493 14.754 18.8696C17.9234 16.2899 21.4797 15 25.423 15C28.3344 15 30.7115 15.8402 32.5541 17.5208C34.3968 19.1939 35.3181 21.1176 35.3181 23.292C35.3181 25.4663 34.3231 27.4195 32.333 29.1516C35.3918 29.9992 37.7246 31.5102 39.3314 33.6845C40.9308 35.8589 41.7305 38.2175 41.7305 40.7603C41.7305 44.1877 40.3854 47.217 37.6951 49.8483C35.0048 52.487 31.5591 53.8063 27.3578 53.8063H15.9702C15.3806 53.8063 14.8572 53.611 14.4003 53.2204C13.9359 52.8371 13.7037 52.3322 13.7037 51.7057C13.7037 51.0792 13.9359 50.5706 14.4003 50.18C14.8572 49.7967 15.3806 49.6051 15.9702 49.6051H17.0205C17.0205 49.1997 17.1053 47.4492 17.2748 44.3535C17.437 41.2578 17.518 38.2064 17.518 35.1992C17.518 32.1994 17.4812 29.7044 17.4075 27.7143C17.3338 25.7243 17.2527 24.1101 17.1642 22.8718C17.0684 21.6409 17.0205 20.8228 17.0205 20.4174C15.0305 22.1127 14.0354 24.1396 14.0354 26.4982C14.0354 27.1247 13.8512 27.6296 13.4826 28.0128C13.1141 28.4035 12.6166 28.5988 11.9901 28.5988C10.6634 28.5988 10 27.8986 10 26.4982ZM22.3274 49.8262C24.7597 50.0842 26.9782 50.2132 28.983 50.2132C30.9952 50.2132 32.8231 49.465 34.4668 47.9688C36.1031 46.4799 36.9212 44.324 36.9212 41.5011C36.9212 38.6855 36.0552 36.5038 34.3231 34.956C32.591 33.4081 30.483 32.6342 27.9991 32.6342C25.5078 32.6342 23.4514 33.1317 21.8298 34.1268C21.8298 36.3748 21.9036 39.2014 22.051 42.6067C22.1984 46.0193 22.2905 48.4258 22.3274 49.8262ZM22.051 18.759C22.2352 19.2013 22.3274 19.5772 22.3274 19.8867C22.3274 20.2037 22.2537 21.5046 22.1062 23.7895C21.9588 26.0744 21.8667 28.6725 21.8298 31.5839C23.9673 29.7044 26.6023 28.7646 29.7348 28.7646C30.8404 27.8433 31.3932 26.4687 31.3932 24.6408C31.3932 22.8202 30.682 21.3756 29.2594 20.3069C27.8443 19.2381 25.8468 18.7037 23.2671 18.7037C23.1197 18.7037 22.9096 18.7111 22.6369 18.7258C22.3568 18.748 22.1615 18.759 22.051 18.759Z" fill="#183B56"/>
<path d="M42 26.5131C42 24.0071 43.5847 21.4642 46.754 18.8845C49.9234 16.3048 53.4797 15.0149 57.423 15.0149C60.3344 15.0149 62.7115 15.8551 64.5541 17.5357C66.3968 19.2088 67.3181 21.1325 67.3181 23.3069C67.3181 25.4812 66.3231 27.4344 64.333 29.1665C67.3918 30.0141 69.7246 31.5251 71.3314 33.6994C72.9308 35.8738 73.7305 38.2324 73.7305 40.7752C73.7305 44.2026 72.3854 47.2319 69.6951 49.8632C67.0048 52.5019 63.5591 53.8212 59.3578 53.8212H47.9702C47.3806 53.8212 46.8572 53.6259 46.4003 53.2353C45.9359 52.852 45.7037 52.3471 45.7037 51.7206C45.7037 51.0941 45.9359 50.5855 46.4003 50.1949C46.8572 49.8116 47.3806 49.62 47.9702 49.62H49.0205C49.0205 49.2146 49.1053 47.4641 49.2748 44.3684C49.437 41.2727 49.518 38.2213 49.518 35.2141C49.518 32.2143 49.4812 29.7193 49.4075 27.7292C49.3338 25.7392 49.2527 24.125 49.1642 22.8867C49.0684 21.6558 49.0205 20.8377 49.0205 20.4323C47.0305 22.1276 46.0354 24.1545 46.0354 26.5131C46.0354 27.1396 45.8512 27.6445 45.4826 28.0277C45.1141 28.4184 44.6166 28.6137 43.9901 28.6137C42.6634 28.6137 42 27.9135 42 26.5131ZM54.3274 49.8411C56.7597 50.0991 58.9782 50.2281 60.983 50.2281C62.9952 50.2281 64.8231 49.4799 66.4668 47.9837C68.1031 46.4948 68.9212 44.3389 68.9212 41.516C68.9212 38.7004 68.0552 36.5187 66.3231 34.9709C64.591 33.423 62.483 32.6491 59.9991 32.6491C57.5078 32.6491 55.4514 33.1466 53.8298 34.1417C53.8298 36.3897 53.9036 39.2163 54.051 42.6216C54.1984 46.0342 54.2905 48.4407 54.3274 49.8411ZM54.051 18.7739C54.2352 19.2162 54.3274 19.5921 54.3274 19.9016C54.3274 20.2186 54.2537 21.5195 54.1062 23.8044C53.9588 26.0893 53.8667 28.6874 53.8298 31.5988C55.9673 29.7193 58.6023 28.7795 61.7348 28.7795C62.8404 27.8582 63.3932 26.4836 63.3932 24.6557C63.3932 22.8351 62.682 21.3905 61.2594 20.3217C59.8443 19.253 57.8468 18.7186 55.2671 18.7186C55.1197 18.7186 54.9096 18.726 54.6369 18.7407C54.3568 18.7629 54.1615 18.7739 54.051 18.7739Z" fill="#183B56"/>
</svg>
